<svg xmlns="http://www.w3.org/2000/svg" xmlns:xlink="http://www.w3.org/1999/xlink" width="500" zoomAndPan="magnify" viewBox="0 0 375 374.999991" height="500" preserveAspectRatio="xMidYMid meet" version="1.0"><defs><filter x="0%" y="0%" width="100%" height="100%" id="93e96232a6"><feColorMatrix values="0 0 0 0 1 0 0 0 0 1 0 0 0 0 1 0 0 0 1 0" color-interpolation-filters="sRGB"/></filter><g/><clipPath id="283782d15f"><path d="M 187 107.238281 L 272.945312 107.238281 L 272.945312 214 L 187 214 Z M 187 107.238281 " clip-rule="nonzero"/></clipPath><mask id="2f134c8c5e"><g filter="url(#93e96232a6)"><rect x="-37.5" width="450" fill="#000000" y="-37.499999" height="449.999989" fill-opacity="0.59"/></g></mask><clipPath id="34a78532b9"><path d="M 0.078125 0.679688 L 16 0.679688 L 16 30 L 0.078125 30 Z M 0.078125 0.679688 " clip-rule="nonzero"/></clipPath><clipPath id="3a66df4d27"><rect x="0" width="17" y="0" height="32"/></clipPath><clipPath id="7f76f189a5"><path d="M 101.945312 114 L 272.945312 114 L 272.945312 214 L 101.945312 214 Z M 101.945312 114 " clip-rule="nonzero"/></clipPath><clipPath id="9c107320fc"><path d="M 101.945312 107.238281 L 188 107.238281 L 188 214 L 101.945312 214 Z M 101.945312 107.238281 " clip-rule="nonzero"/></clipPath></defs><g clip-path="url(#283782d15f)"><path fill="#00b9db" d="M 273.050781 213.886719 L 230.539062 213.886719 L 215.421875 166.574219 L 210.441406 151.277344 L 204.570312 133.316406 L 187.675781 151.992188 L 187.496094 151.8125 L 187.496094 132.070312 L 187.675781 132.425781 L 210.261719 107.523438 L 220.046875 138.117188 L 225.027344 153.589844 L 240.144531 200.726562 L 268.425781 200.726562 Z M 273.050781 213.886719 " fill-opacity="1" fill-rule="nonzero"/></g><g mask="url(#2f134c8c5e)"><g transform="matrix(1, 0, 0, 1, 214, 151)"><g clip-path="url(#3a66df4d27)"><g clip-path="url(#34a78532b9)"><path fill="#00b9db" d="M 15.472656 16.464844 L 12.804688 20.199219 L 5.867188 29.449219 L 3.023438 20.910156 L 0.886719 14.152344 L 7.824219 4.726562 L 10.492188 0.992188 L 12.804688 7.925781 Z M 15.472656 16.464844 " fill-opacity="1" fill-rule="nonzero"/></g></g></g></g><g clip-path="url(#7f76f189a5)"><path fill="#00f7ff" d="M 273.050781 213.886719 L 259 213.886719 L 254.375 200.726562 L 233.742188 142.03125 L 225.027344 153.589844 L 215.421875 166.574219 L 187.675781 203.75 L 159.929688 166.753906 L 150.324219 153.945312 L 141.253906 141.851562 L 120.621094 200.726562 L 115.996094 213.886719 L 101.945312 213.886719 L 106.570312 200.726562 L 136.984375 114.28125 L 155.304688 138.472656 L 164.90625 151.457031 L 187.675781 181.695312 L 210.441406 151.277344 L 220.046875 138.117188 L 238.011719 114.105469 L 268.425781 200.726562 Z M 273.050781 213.886719 " fill-opacity="1" fill-rule="nonzero"/></g><g clip-path="url(#9c107320fc)"><path fill="#00b9db" d="M 187.496094 132.070312 L 187.496094 151.8125 L 170.777344 133.316406 L 164.90625 151.457031 L 159.929688 166.753906 L 144.808594 213.886719 L 101.945312 213.886719 L 106.570312 200.726562 L 135.203125 200.726562 L 150.324219 153.945312 L 155.304688 138.472656 L 165.265625 107.523438 Z M 187.496094 132.070312 " fill-opacity="1" fill-rule="nonzero"/></g><g fill="#00f7ff" fill-opacity="1"><g transform="translate(73.245197, 236.930814)"><g><path d="M 0.140625 -8.859375 L 0.140625 -10.453125 L 8.5 -10.453125 L 8.5 -8.859375 L 5.1875 -8.859375 L 5.1875 0 L 3.4375 0 L 3.4375 -8.859375 Z M 0.140625 -8.859375 "/></g></g></g><g fill="#00f7ff" fill-opacity="1"><g transform="translate(89.335179, 236.930814)"><g><path d="M 1.375 0 L 1.375 -10.453125 L 8.828125 -10.453125 L 8.828125 -8.859375 L 3.140625 -8.859375 L 3.140625 -6.03125 L 8.234375 -6.03125 L 8.234375 -4.46875 L 3.140625 -4.46875 L 3.140625 -1.578125 L 9.015625 -1.578125 L 9.015625 0 Z M 1.375 0 "/></g></g></g><g fill="#00f7ff" fill-opacity="1"><g transform="translate(106.572945, 236.930814)"><g><path d="M 8.9375 -7.640625 C 8.5625 -8.054688 8.113281 -8.382812 7.59375 -8.625 C 7.070312 -8.863281 6.550781 -8.984375 6.03125 -8.984375 C 5.34375 -8.984375 4.710938 -8.816406 4.140625 -8.484375 C 3.566406 -8.160156 3.113281 -7.710938 2.78125 -7.140625 C 2.457031 -6.566406 2.296875 -5.9375 2.296875 -5.25 C 2.296875 -4.570312 2.460938 -3.945312 2.796875 -3.375 C 3.128906 -2.800781 3.578125 -2.347656 4.140625 -2.015625 C 4.710938 -1.679688 5.34375 -1.515625 6.03125 -1.515625 C 6.539062 -1.515625 7.050781 -1.625 7.5625 -1.84375 C 8.082031 -2.070312 8.539062 -2.382812 8.9375 -2.78125 L 9.984375 -1.609375 C 9.441406 -1.078125 8.8125 -0.648438 8.09375 -0.328125 C 7.382812 -0.015625 6.664062 0.140625 5.9375 0.140625 C 4.9375 0.140625 4.019531 -0.0976562 3.1875 -0.578125 C 2.351562 -1.054688 1.695312 -1.703125 1.21875 -2.515625 C 0.738281 -3.335938 0.5 -4.242188 0.5 -5.234375 C 0.5 -6.222656 0.738281 -7.125 1.21875 -7.9375 C 1.707031 -8.75 2.375 -9.390625 3.21875 -9.859375 C 4.0625 -10.328125 4.988281 -10.5625 6 -10.5625 C 6.738281 -10.5625 7.457031 -10.414062 8.15625 -10.125 C 8.851562 -9.832031 9.457031 -9.429688 9.96875 -8.921875 Z M 8.9375 -7.640625 "/></g></g></g><g fill="#00f7ff" fill-opacity="1"><g transform="translate(124.421862, 236.930814)"><g><path d="M 1.375 0 L 1.375 -10.453125 L 3.140625 -10.453125 L 3.140625 -5.90625 L 8.671875 -5.90625 L 8.671875 -10.453125 L 10.4375 -10.453125 L 10.4375 0 L 8.671875 0 L 8.671875 -4.328125 L 3.140625 -4.328125 L 3.140625 0 Z M 1.375 0 "/></g></g></g><g fill="#00b9db" fill-opacity="1"><g transform="translate(143.67488, 236.930814)"><g/></g></g><g fill="#00b9db" fill-opacity="1"><g transform="translate(155.15881, 236.930814)"><g><path d="M 7.734375 -7.953125 C 7.191406 -8.285156 6.648438 -8.53125 6.109375 -8.6875 C 5.578125 -8.84375 5.097656 -8.921875 4.671875 -8.921875 C 4.148438 -8.921875 3.734375 -8.820312 3.421875 -8.625 C 3.117188 -8.4375 2.96875 -8.160156 2.96875 -7.796875 C 2.96875 -7.484375 3.066406 -7.222656 3.265625 -7.015625 C 3.460938 -6.804688 3.710938 -6.640625 4.015625 -6.515625 C 4.316406 -6.398438 4.734375 -6.257812 5.265625 -6.09375 C 5.972656 -5.875 6.546875 -5.660156 6.984375 -5.453125 C 7.429688 -5.242188 7.8125 -4.9375 8.125 -4.53125 C 8.4375 -4.132812 8.59375 -3.609375 8.59375 -2.953125 C 8.59375 -2.335938 8.425781 -1.796875 8.09375 -1.328125 C 7.757812 -0.867188 7.289062 -0.515625 6.6875 -0.265625 C 6.09375 -0.015625 5.414062 0.109375 4.65625 0.109375 C 3.851562 0.109375 3.078125 -0.0390625 2.328125 -0.34375 C 1.578125 -0.644531 0.929688 -1.050781 0.390625 -1.5625 L 1.15625 -3.09375 C 1.675781 -2.601562 2.25 -2.21875 2.875 -1.9375 C 3.507812 -1.664062 4.113281 -1.53125 4.6875 -1.53125 C 5.289062 -1.53125 5.765625 -1.644531 6.109375 -1.875 C 6.460938 -2.113281 6.640625 -2.4375 6.640625 -2.84375 C 6.640625 -3.175781 6.535156 -3.445312 6.328125 -3.65625 C 6.128906 -3.863281 5.875 -4.03125 5.5625 -4.15625 C 5.257812 -4.28125 4.84375 -4.421875 4.3125 -4.578125 C 3.59375 -4.785156 3.015625 -4.988281 2.578125 -5.1875 C 2.148438 -5.382812 1.78125 -5.679688 1.46875 -6.078125 C 1.15625 -6.484375 1 -7.007812 1 -7.65625 C 1 -8.238281 1.15625 -8.75 1.46875 -9.1875 C 1.789062 -9.632812 2.238281 -9.976562 2.8125 -10.21875 C 3.394531 -10.46875 4.0625 -10.59375 4.8125 -10.59375 C 5.46875 -10.59375 6.113281 -10.492188 6.75 -10.296875 C 7.382812 -10.097656 7.953125 -9.832031 8.453125 -9.5 Z M 7.734375 -7.953125 "/></g></g></g><g fill="#00b9db" fill-opacity="1"><g transform="translate(171.889752, 236.930814)"><g><path d="M 6.046875 -10.5625 C 7.066406 -10.5625 8 -10.328125 8.84375 -9.859375 C 9.6875 -9.390625 10.351562 -8.75 10.84375 -7.9375 C 11.332031 -7.125 11.578125 -6.222656 11.578125 -5.234375 C 11.578125 -4.242188 11.332031 -3.335938 10.84375 -2.515625 C 10.351562 -1.703125 9.6875 -1.054688 8.84375 -0.578125 C 8 -0.0976562 7.066406 0.140625 6.046875 0.140625 C 5.015625 0.140625 4.078125 -0.0976562 3.234375 -0.578125 C 2.390625 -1.054688 1.722656 -1.703125 1.234375 -2.515625 C 0.742188 -3.335938 0.5 -4.242188 0.5 -5.234375 C 0.5 -6.222656 0.742188 -7.125 1.234375 -7.9375 C 1.722656 -8.75 2.390625 -9.390625 3.234375 -9.859375 C 4.078125 -10.328125 5.015625 -10.5625 6.046875 -10.5625 Z M 6.0625 -8.96875 C 5.382812 -8.96875 4.753906 -8.800781 4.171875 -8.46875 C 3.597656 -8.132812 3.140625 -7.679688 2.796875 -7.109375 C 2.460938 -6.546875 2.296875 -5.921875 2.296875 -5.234375 C 2.296875 -4.546875 2.46875 -3.914062 2.8125 -3.34375 C 3.15625 -2.769531 3.613281 -2.3125 4.1875 -1.96875 C 4.757812 -1.632812 5.382812 -1.46875 6.0625 -1.46875 C 6.738281 -1.46875 7.359375 -1.632812 7.921875 -1.96875 C 8.492188 -2.3125 8.945312 -2.769531 9.28125 -3.34375 C 9.613281 -3.914062 9.78125 -4.546875 9.78125 -5.234375 C 9.78125 -5.921875 9.613281 -6.546875 9.28125 -7.109375 C 8.945312 -7.679688 8.492188 -8.132812 7.921875 -8.46875 C 7.359375 -8.800781 6.738281 -8.96875 6.0625 -8.96875 Z M 6.0625 -8.96875 "/></g></g></g><g fill="#00b9db" fill-opacity="1"><g transform="translate(191.423078, 236.930814)"><g><path d="M 1.375 0 L 1.375 -10.453125 L 3.140625 -10.453125 L 3.140625 -1.59375 L 7.65625 -1.59375 L 7.65625 0 Z M 1.375 0 "/></g></g></g><g fill="#00b9db" fill-opacity="1"><g transform="translate(206.842274, 236.930814)"><g><path d="M 2.921875 -4.28125 C 2.921875 -3.40625 3.171875 -2.71875 3.671875 -2.21875 C 4.171875 -1.71875 4.84375 -1.46875 5.6875 -1.46875 C 6.519531 -1.46875 7.179688 -1.710938 7.671875 -2.203125 C 8.160156 -2.703125 8.40625 -3.394531 8.40625 -4.28125 L 8.40625 -10.453125 L 10.15625 -10.453125 L 10.15625 -4.28125 C 10.15625 -3.375 9.976562 -2.585938 9.625 -1.921875 C 9.269531 -1.265625 8.753906 -0.753906 8.078125 -0.390625 C 7.398438 -0.0351562 6.601562 0.140625 5.6875 0.140625 C 4.757812 0.140625 3.953125 -0.0351562 3.265625 -0.390625 C 2.585938 -0.753906 2.066406 -1.265625 1.703125 -1.921875 C 1.335938 -2.585938 1.15625 -3.375 1.15625 -4.28125 L 1.15625 -10.453125 L 2.921875 -10.453125 Z M 2.921875 -4.28125 "/></g></g></g><g fill="#00b9db" fill-opacity="1"><g transform="translate(225.615378, 236.930814)"><g><path d="M 0.140625 -8.859375 L 0.140625 -10.453125 L 8.5 -10.453125 L 8.5 -8.859375 L 5.1875 -8.859375 L 5.1875 0 L 3.4375 0 L 3.4375 -8.859375 Z M 0.140625 -8.859375 "/></g></g></g><g fill="#00b9db" fill-opacity="1"><g transform="translate(241.705364, 236.930814)"><g><path d="M 1.375 0 L 1.375 -10.453125 L 3.140625 -10.453125 L 3.140625 0 Z M 1.375 0 "/></g></g></g><g fill="#00b9db" fill-opacity="1"><g transform="translate(253.666293, 236.930814)"><g><path d="M 6.046875 -10.5625 C 7.066406 -10.5625 8 -10.328125 8.84375 -9.859375 C 9.6875 -9.390625 10.351562 -8.75 10.84375 -7.9375 C 11.332031 -7.125 11.578125 -6.222656 11.578125 -5.234375 C 11.578125 -4.242188 11.332031 -3.335938 10.84375 -2.515625 C 10.351562 -1.703125 9.6875 -1.054688 8.84375 -0.578125 C 8 -0.0976562 7.066406 0.140625 6.046875 0.140625 C 5.015625 0.140625 4.078125 -0.0976562 3.234375 -0.578125 C 2.390625 -1.054688 1.722656 -1.703125 1.234375 -2.515625 C 0.742188 -3.335938 0.5 -4.242188 0.5 -5.234375 C 0.5 -6.222656 0.742188 -7.125 1.234375 -7.9375 C 1.722656 -8.75 2.390625 -9.390625 3.234375 -9.859375 C 4.078125 -10.328125 5.015625 -10.5625 6.046875 -10.5625 Z M 6.0625 -8.96875 C 5.382812 -8.96875 4.753906 -8.800781 4.171875 -8.46875 C 3.597656 -8.132812 3.140625 -7.679688 2.796875 -7.109375 C 2.460938 -6.546875 2.296875 -5.921875 2.296875 -5.234375 C 2.296875 -4.546875 2.46875 -3.914062 2.8125 -3.34375 C 3.15625 -2.769531 3.613281 -2.3125 4.1875 -1.96875 C 4.757812 -1.632812 5.382812 -1.46875 6.0625 -1.46875 C 6.738281 -1.46875 7.359375 -1.632812 7.921875 -1.96875 C 8.492188 -2.3125 8.945312 -2.769531 9.28125 -3.34375 C 9.613281 -3.914062 9.78125 -4.546875 9.78125 -5.234375 C 9.78125 -5.921875 9.613281 -6.546875 9.28125 -7.109375 C 8.945312 -7.679688 8.492188 -8.132812 7.921875 -8.46875 C 7.359375 -8.800781 6.738281 -8.96875 6.0625 -8.96875 Z M 6.0625 -8.96875 "/></g></g></g><g fill="#00b9db" fill-opacity="1"><g transform="translate(273.199617, 236.930814)"><g><path d="M 8.703125 -2.890625 L 8.703125 -10.453125 L 10.4375 -10.453125 L 10.4375 0 L 8.703125 0 L 3.140625 -7.515625 L 3.140625 0 L 1.375 0 L 1.375 -10.453125 L 3.109375 -10.453125 Z M 8.703125 -2.890625 "/></g></g></g><g fill="#00b9db" fill-opacity="1"><g transform="translate(292.464634, 236.930814)"><g><path d="M 7.734375 -7.953125 C 7.191406 -8.285156 6.648438 -8.53125 6.109375 -8.6875 C 5.578125 -8.84375 5.097656 -8.921875 4.671875 -8.921875 C 4.148438 -8.921875 3.734375 -8.820312 3.421875 -8.625 C 3.117188 -8.4375 2.96875 -8.160156 2.96875 -7.796875 C 2.96875 -7.484375 3.066406 -7.222656 3.265625 -7.015625 C 3.460938 -6.804688 3.710938 -6.640625 4.015625 -6.515625 C 4.316406 -6.398438 4.734375 -6.257812 5.265625 -6.09375 C 5.972656 -5.875 6.546875 -5.660156 6.984375 -5.453125 C 7.429688 -5.242188 7.8125 -4.9375 8.125 -4.53125 C 8.4375 -4.132812 8.59375 -3.609375 8.59375 -2.953125 C 8.59375 -2.335938 8.425781 -1.796875 8.09375 -1.328125 C 7.757812 -0.867188 7.289062 -0.515625 6.6875 -0.265625 C 6.09375 -0.015625 5.414062 0.109375 4.65625 0.109375 C 3.851562 0.109375 3.078125 -0.0390625 2.328125 -0.34375 C 1.578125 -0.644531 0.929688 -1.050781 0.390625 -1.5625 L 1.15625 -3.09375 C 1.675781 -2.601562 2.25 -2.21875 2.875 -1.9375 C 3.507812 -1.664062 4.113281 -1.53125 4.6875 -1.53125 C 5.289062 -1.53125 5.765625 -1.644531 6.109375 -1.875 C 6.460938 -2.113281 6.640625 -2.4375 6.640625 -2.84375 C 6.640625 -3.175781 6.535156 -3.445312 6.328125 -3.65625 C 6.128906 -3.863281 5.875 -4.03125 5.5625 -4.15625 C 5.257812 -4.28125 4.84375 -4.421875 4.3125 -4.578125 C 3.59375 -4.785156 3.015625 -4.988281 2.578125 -5.1875 C 2.148438 -5.382812 1.78125 -5.679688 1.46875 -6.078125 C 1.15625 -6.484375 1 -7.007812 1 -7.65625 C 1 -8.238281 1.15625 -8.75 1.46875 -9.1875 C 1.789062 -9.632812 2.238281 -9.976562 2.8125 -10.21875 C 3.394531 -10.46875 4.0625 -10.59375 4.8125 -10.59375 C 5.46875 -10.59375 6.113281 -10.492188 6.75 -10.296875 C 7.382812 -10.097656 7.953125 -9.832031 8.453125 -9.5 Z M 7.734375 -7.953125 "/></g></g></g></svg>