<svg xmlns="http://www.w3.org/2000/svg" xmlns:xlink="http://www.w3.org/1999/xlink" width="500" zoomAndPan="magnify" viewBox="0 0 375 374.999991" height="500" preserveAspectRatio="xMidYMid meet" version="1.0"><defs><filter x="0%" y="0%" width="100%" height="100%" id="883c458577"><feColorMatrix values="0 0 0 0 1 0 0 0 0 1 0 0 0 0 1 0 0 0 1 0" color-interpolation-filters="sRGB"/></filter><g/><clipPath id="50a4ad0d6b"><path d="M 187 107.238281 L 272.945312 107.238281 L 272.945312 214 L 187 214 Z M 187 107.238281 " clip-rule="nonzero"/></clipPath><mask id="4dd11e4559"><g filter="url(#883c458577)"><rect x="-37.5" width="450" fill="#000000" y="-37.499999" height="449.999989" fill-opacity="0.59"/></g></mask><clipPath id="4c2c696802"><path d="M 0.078125 0.679688 L 16 0.679688 L 16 30 L 0.078125 30 Z M 0.078125 0.679688 " clip-rule="nonzero"/></clipPath><clipPath id="92d1c1d5f6"><rect x="0" width="17" y="0" height="32"/></clipPath><clipPath id="0fe9b95d82"><path d="M 101.945312 114 L 272.945312 114 L 272.945312 214 L 101.945312 214 Z M 101.945312 114 " clip-rule="nonzero"/></clipPath><clipPath id="4bd1e22aa9"><path d="M 101.945312 107.238281 L 188 107.238281 L 188 214 L 101.945312 214 Z M 101.945312 107.238281 " clip-rule="nonzero"/></clipPath></defs><g clip-path="url(#50a4ad0d6b)"><path fill="#00b9db" d="M 273.050781 213.886719 L 230.539062 213.886719 L 215.421875 166.574219 L 210.441406 151.277344 L 204.570312 133.316406 L 187.675781 151.992188 L 187.496094 151.8125 L 187.496094 132.070312 L 187.675781 132.425781 L 210.261719 107.523438 L 220.046875 138.117188 L 225.027344 153.589844 L 240.144531 200.726562 L 268.425781 200.726562 Z M 273.050781 213.886719 " fill-opacity="1" fill-rule="nonzero"/></g><g mask="url(#4dd11e4559)"><g transform="matrix(1, 0, 0, 1, 214, 151)"><g clip-path="url(#92d1c1d5f6)"><g clip-path="url(#4c2c696802)"><path fill="#00b9db" d="M 15.472656 16.464844 L 12.804688 20.199219 L 5.867188 29.449219 L 3.023438 20.910156 L 0.886719 14.152344 L 7.824219 4.726562 L 10.492188 0.992188 L 12.804688 7.925781 Z M 15.472656 16.464844 " fill-opacity="1" fill-rule="nonzero"/></g></g></g></g><g clip-path="url(#0fe9b95d82)"><path fill="#00f7ff" d="M 273.050781 213.886719 L 259 213.886719 L 254.375 200.726562 L 233.742188 142.03125 L 225.027344 153.589844 L 215.421875 166.574219 L 187.675781 203.75 L 159.929688 166.753906 L 150.324219 153.945312 L 141.253906 141.851562 L 120.621094 200.726562 L 115.996094 213.886719 L 101.945312 213.886719 L 106.570312 200.726562 L 136.984375 114.28125 L 155.304688 138.472656 L 164.90625 151.457031 L 187.675781 181.695312 L 210.441406 151.277344 L 220.046875 138.117188 L 238.011719 114.105469 L 268.425781 200.726562 Z M 273.050781 213.886719 " fill-opacity="1" fill-rule="nonzero"/></g><g clip-path="url(#4bd1e22aa9)"><path fill="#00b9db" d="M 187.496094 132.070312 L 187.496094 151.8125 L 170.777344 133.316406 L 164.90625 151.457031 L 159.929688 166.753906 L 144.808594 213.886719 L 101.945312 213.886719 L 106.570312 200.726562 L 135.203125 200.726562 L 150.324219 153.945312 L 155.304688 138.472656 L 165.265625 107.523438 Z M 187.496094 132.070312 " fill-opacity="1" fill-rule="nonzero"/></g><g fill="#00f7ff" fill-opacity="1"><g transform="translate(72.178791, 236.930814)"><g><path d="M 0.109375 -8.203125 L 0.109375 -10.453125 L 9.078125 -10.453125 L 9.078125 -8.203125 L 5.9375 -8.203125 L 5.9375 0 L 3.203125 0 L 3.203125 -8.203125 Z M 0.109375 -8.203125 "/></g></g></g><g fill="#00f7ff" fill-opacity="1"><g transform="translate(88.790486, 236.930814)"><g><path d="M 1.015625 0 L 1.015625 -10.453125 L 9.265625 -10.453125 L 9.265625 -8.28125 L 3.75 -8.28125 L 3.75 -6.328125 L 8.734375 -6.328125 L 8.734375 -4.15625 L 3.75 -4.140625 L 3.75 -2.171875 L 9.421875 -2.171875 L 9.421875 0 Z M 1.015625 0 "/></g></g></g><g fill="#00f7ff" fill-opacity="1"><g transform="translate(106.311471, 236.930814)"><g><path d="M 8.578125 -6.90625 C 8.242188 -7.332031 7.84375 -7.671875 7.375 -7.921875 C 6.90625 -8.179688 6.441406 -8.3125 5.984375 -8.3125 C 5.453125 -8.3125 4.96875 -8.175781 4.53125 -7.90625 C 4.101562 -7.644531 3.765625 -7.285156 3.515625 -6.828125 C 3.273438 -6.367188 3.15625 -5.851562 3.15625 -5.28125 C 3.15625 -4.71875 3.273438 -4.203125 3.515625 -3.734375 C 3.765625 -3.273438 4.101562 -2.910156 4.53125 -2.640625 C 4.96875 -2.378906 5.453125 -2.25 5.984375 -2.25 C 6.410156 -2.25 6.859375 -2.359375 7.328125 -2.578125 C 7.796875 -2.796875 8.210938 -3.097656 8.578125 -3.484375 L 10.171875 -1.765625 C 9.609375 -1.160156 8.9375 -0.679688 8.15625 -0.328125 C 7.375 0.015625 6.597656 0.1875 5.828125 0.1875 C 4.796875 0.1875 3.863281 -0.046875 3.03125 -0.515625 C 2.195312 -0.992188 1.539062 -1.644531 1.0625 -2.46875 C 0.582031 -3.300781 0.34375 -4.226562 0.34375 -5.25 C 0.34375 -6.269531 0.585938 -7.1875 1.078125 -8 C 1.566406 -8.8125 2.234375 -9.453125 3.078125 -9.921875 C 3.929688 -10.390625 4.882812 -10.625 5.9375 -10.625 C 6.71875 -10.625 7.484375 -10.460938 8.234375 -10.140625 C 8.992188 -9.816406 9.632812 -9.375 10.15625 -8.8125 Z M 8.578125 -6.90625 "/></g></g></g><g fill="#00f7ff" fill-opacity="1"><g transform="translate(124.085864, 236.930814)"><g><path d="M 1.015625 0 L 1.015625 -10.453125 L 3.75 -10.453125 L 3.75 -6.1875 L 7.96875 -6.1875 L 7.96875 -10.453125 L 10.703125 -10.453125 L 10.703125 0 L 7.96875 0 L 7.96875 -4.015625 L 3.75 -4.015625 L 3.75 0 Z M 1.015625 0 "/></g></g></g><g fill="#00b9db" fill-opacity="1"><g transform="translate(143.253005, 236.930814)"><g/></g></g><g fill="#00b9db" fill-opacity="1"><g transform="translate(154.73738, 236.930814)"><g><path d="M 8.21875 -7.3125 C 7.664062 -7.632812 7.070312 -7.898438 6.4375 -8.109375 C 5.800781 -8.328125 5.269531 -8.4375 4.84375 -8.4375 C 4.507812 -8.4375 4.242188 -8.375 4.046875 -8.25 C 3.859375 -8.125 3.765625 -7.941406 3.765625 -7.703125 C 3.765625 -7.472656 3.847656 -7.28125 4.015625 -7.125 C 4.179688 -6.96875 4.390625 -6.84375 4.640625 -6.75 C 4.890625 -6.65625 5.257812 -6.535156 5.75 -6.390625 C 6.46875 -6.179688 7.0625 -5.972656 7.53125 -5.765625 C 8.007812 -5.554688 8.414062 -5.234375 8.75 -4.796875 C 9.09375 -4.359375 9.265625 -3.796875 9.265625 -3.109375 C 9.265625 -2.410156 9.078125 -1.8125 8.703125 -1.3125 C 8.335938 -0.820312 7.832031 -0.453125 7.1875 -0.203125 C 6.550781 0.046875 5.84375 0.171875 5.0625 0.171875 C 4.195312 0.171875 3.332031 0.0195312 2.46875 -0.28125 C 1.601562 -0.59375 0.859375 -1.007812 0.234375 -1.53125 L 1.296875 -3.671875 C 1.828125 -3.203125 2.453125 -2.816406 3.171875 -2.515625 C 3.890625 -2.222656 4.53125 -2.078125 5.09375 -2.078125 C 5.5 -2.078125 5.816406 -2.148438 6.046875 -2.296875 C 6.285156 -2.441406 6.40625 -2.660156 6.40625 -2.953125 C 6.40625 -3.191406 6.316406 -3.390625 6.140625 -3.546875 C 5.960938 -3.710938 5.742188 -3.84375 5.484375 -3.9375 C 5.222656 -4.03125 4.851562 -4.140625 4.375 -4.265625 C 3.65625 -4.460938 3.0625 -4.660156 2.59375 -4.859375 C 2.125 -5.066406 1.722656 -5.378906 1.390625 -5.796875 C 1.054688 -6.210938 0.890625 -6.765625 0.890625 -7.453125 C 0.890625 -8.097656 1.0625 -8.660156 1.40625 -9.140625 C 1.75 -9.628906 2.234375 -10.003906 2.859375 -10.265625 C 3.492188 -10.535156 4.234375 -10.671875 5.078125 -10.671875 C 5.828125 -10.671875 6.570312 -10.5625 7.3125 -10.34375 C 8.050781 -10.132812 8.695312 -9.847656 9.25 -9.484375 Z M 8.21875 -7.3125 "/></g></g></g><g fill="#00b9db" fill-opacity="1"><g transform="translate(171.826075, 236.930814)"><g><path d="M 6 -10.625 C 7.0625 -10.625 8.019531 -10.390625 8.875 -9.921875 C 9.738281 -9.453125 10.414062 -8.8125 10.90625 -8 C 11.40625 -7.1875 11.65625 -6.269531 11.65625 -5.25 C 11.65625 -4.226562 11.40625 -3.300781 10.90625 -2.46875 C 10.414062 -1.644531 9.738281 -0.992188 8.875 -0.515625 C 8.019531 -0.046875 7.0625 0.1875 6 0.1875 C 4.9375 0.1875 3.972656 -0.046875 3.109375 -0.515625 C 2.253906 -0.984375 1.578125 -1.632812 1.078125 -2.46875 C 0.585938 -3.300781 0.34375 -4.226562 0.34375 -5.25 C 0.34375 -6.269531 0.585938 -7.1875 1.078125 -8 C 1.578125 -8.8125 2.253906 -9.453125 3.109375 -9.921875 C 3.972656 -10.390625 4.9375 -10.625 6 -10.625 Z M 6.03125 -8.3125 C 5.507812 -8.3125 5.023438 -8.175781 4.578125 -7.90625 C 4.140625 -7.632812 3.789062 -7.265625 3.53125 -6.796875 C 3.28125 -6.328125 3.15625 -5.804688 3.15625 -5.234375 C 3.15625 -4.660156 3.285156 -4.132812 3.546875 -3.65625 C 3.804688 -3.1875 4.15625 -2.816406 4.59375 -2.546875 C 5.03125 -2.273438 5.507812 -2.140625 6.03125 -2.140625 C 6.539062 -2.140625 7.015625 -2.273438 7.453125 -2.546875 C 7.890625 -2.816406 8.226562 -3.1875 8.46875 -3.65625 C 8.71875 -4.132812 8.84375 -4.660156 8.84375 -5.234375 C 8.84375 -5.804688 8.71875 -6.328125 8.46875 -6.796875 C 8.226562 -7.265625 7.890625 -7.632812 7.453125 -7.90625 C 7.015625 -8.175781 6.539062 -8.3125 6.03125 -8.3125 Z M 6.03125 -8.3125 "/></g></g></g><g fill="#00b9db" fill-opacity="1"><g transform="translate(191.269965, 236.930814)"><g><path d="M 1.015625 0 L 1.015625 -10.453125 L 3.75 -10.453125 L 3.75 -2.328125 L 8.171875 -2.328125 L 8.171875 0 Z M 1.015625 0 "/></g></g></g><g fill="#00b9db" fill-opacity="1"><g transform="translate(207.121441, 236.930814)"><g><path d="M 3.5625 -4.3125 C 3.5625 -3.65625 3.753906 -3.128906 4.140625 -2.734375 C 4.535156 -2.335938 5.03125 -2.140625 5.625 -2.140625 C 6.207031 -2.140625 6.679688 -2.332031 7.046875 -2.71875 C 7.410156 -3.113281 7.59375 -3.644531 7.59375 -4.3125 L 7.59375 -10.453125 L 10.328125 -10.453125 L 10.328125 -4.3125 C 10.328125 -3.40625 10.132812 -2.609375 9.75 -1.921875 C 9.363281 -1.242188 8.816406 -0.722656 8.109375 -0.359375 C 7.398438 0.00390625 6.566406 0.1875 5.609375 0.1875 C 4.648438 0.1875 3.8125 0.00390625 3.09375 -0.359375 C 2.375 -0.722656 1.816406 -1.242188 1.421875 -1.921875 C 1.023438 -2.609375 0.828125 -3.40625 0.828125 -4.3125 L 0.828125 -10.453125 L 3.5625 -10.453125 Z M 3.5625 -4.3125 "/></g></g></g><g fill="#00b9db" fill-opacity="1"><g transform="translate(225.745486, 236.930814)"><g><path d="M 0.109375 -8.203125 L 0.109375 -10.453125 L 9.078125 -10.453125 L 9.078125 -8.203125 L 5.9375 -8.203125 L 5.9375 0 L 3.203125 0 L 3.203125 -8.203125 Z M 0.109375 -8.203125 "/></g></g></g><g fill="#00b9db" fill-opacity="1"><g transform="translate(242.35718, 236.930814)"><g><path d="M 1.015625 0 L 1.015625 -10.453125 L 3.75 -10.453125 L 3.75 0 Z M 1.015625 0 "/></g></g></g><g fill="#00b9db" fill-opacity="1"><g transform="translate(254.571521, 236.930814)"><g><path d="M 6 -10.625 C 7.0625 -10.625 8.019531 -10.390625 8.875 -9.921875 C 9.738281 -9.453125 10.414062 -8.8125 10.90625 -8 C 11.40625 -7.1875 11.65625 -6.269531 11.65625 -5.25 C 11.65625 -4.226562 11.40625 -3.300781 10.90625 -2.46875 C 10.414062 -1.644531 9.738281 -0.992188 8.875 -0.515625 C 8.019531 -0.046875 7.0625 0.1875 6 0.1875 C 4.9375 0.1875 3.972656 -0.046875 3.109375 -0.515625 C 2.253906 -0.984375 1.578125 -1.632812 1.078125 -2.46875 C 0.585938 -3.300781 0.34375 -4.226562 0.34375 -5.25 C 0.34375 -6.269531 0.585938 -7.1875 1.078125 -8 C 1.578125 -8.8125 2.253906 -9.453125 3.109375 -9.921875 C 3.972656 -10.390625 4.9375 -10.625 6 -10.625 Z M 6.03125 -8.3125 C 5.507812 -8.3125 5.023438 -8.175781 4.578125 -7.90625 C 4.140625 -7.632812 3.789062 -7.265625 3.53125 -6.796875 C 3.28125 -6.328125 3.15625 -5.804688 3.15625 -5.234375 C 3.15625 -4.660156 3.285156 -4.132812 3.546875 -3.65625 C 3.804688 -3.1875 4.15625 -2.816406 4.59375 -2.546875 C 5.03125 -2.273438 5.507812 -2.140625 6.03125 -2.140625 C 6.539062 -2.140625 7.015625 -2.273438 7.453125 -2.546875 C 7.890625 -2.816406 8.226562 -3.1875 8.46875 -3.65625 C 8.71875 -4.132812 8.84375 -4.660156 8.84375 -5.234375 C 8.84375 -5.804688 8.71875 -6.328125 8.46875 -6.796875 C 8.226562 -7.265625 7.890625 -7.632812 7.453125 -7.90625 C 7.015625 -8.175781 6.539062 -8.3125 6.03125 -8.3125 Z M 6.03125 -8.3125 "/></g></g></g><g fill="#00b9db" fill-opacity="1"><g transform="translate(274.015409, 236.930814)"><g><path d="M 8.171875 -4.15625 L 8.15625 -10.453125 L 10.703125 -10.453125 L 10.703125 0 L 8.3125 0 L 3.5625 -6.25 L 3.5625 0 L 1.015625 0 L 1.015625 -10.453125 L 3.421875 -10.453125 Z M 8.171875 -4.15625 "/></g></g></g><g fill="#00b9db" fill-opacity="1"><g transform="translate(293.190991, 236.930814)"><g><path d="M 8.21875 -7.3125 C 7.664062 -7.632812 7.070312 -7.898438 6.4375 -8.109375 C 5.800781 -8.328125 5.269531 -8.4375 4.84375 -8.4375 C 4.507812 -8.4375 4.242188 -8.375 4.046875 -8.25 C 3.859375 -8.125 3.765625 -7.941406 3.765625 -7.703125 C 3.765625 -7.472656 3.847656 -7.28125 4.015625 -7.125 C 4.179688 -6.96875 4.390625 -6.84375 4.640625 -6.75 C 4.890625 -6.65625 5.257812 -6.535156 5.75 -6.390625 C 6.46875 -6.179688 7.0625 -5.972656 7.53125 -5.765625 C 8.007812 -5.554688 8.414062 -5.234375 8.75 -4.796875 C 9.09375 -4.359375 9.265625 -3.796875 9.265625 -3.109375 C 9.265625 -2.410156 9.078125 -1.8125 8.703125 -1.3125 C 8.335938 -0.820312 7.832031 -0.453125 7.1875 -0.203125 C 6.550781 0.046875 5.84375 0.171875 5.0625 0.171875 C 4.195312 0.171875 3.332031 0.0195312 2.46875 -0.28125 C 1.601562 -0.59375 0.859375 -1.007812 0.234375 -1.53125 L 1.296875 -3.671875 C 1.828125 -3.203125 2.453125 -2.816406 3.171875 -2.515625 C 3.890625 -2.222656 4.53125 -2.078125 5.09375 -2.078125 C 5.5 -2.078125 5.816406 -2.148438 6.046875 -2.296875 C 6.285156 -2.441406 6.40625 -2.660156 6.40625 -2.953125 C 6.40625 -3.191406 6.316406 -3.390625 6.140625 -3.546875 C 5.960938 -3.710938 5.742188 -3.84375 5.484375 -3.9375 C 5.222656 -4.03125 4.851562 -4.140625 4.375 -4.265625 C 3.65625 -4.460938 3.0625 -4.660156 2.59375 -4.859375 C 2.125 -5.066406 1.722656 -5.378906 1.390625 -5.796875 C 1.054688 -6.210938 0.890625 -6.765625 0.890625 -7.453125 C 0.890625 -8.097656 1.0625 -8.660156 1.40625 -9.140625 C 1.75 -9.628906 2.234375 -10.003906 2.859375 -10.265625 C 3.492188 -10.535156 4.234375 -10.671875 5.078125 -10.671875 C 5.828125 -10.671875 6.570312 -10.5625 7.3125 -10.34375 C 8.050781 -10.132812 8.695312 -9.847656 9.25 -9.484375 Z M 8.21875 -7.3125 "/></g></g></g></svg>